<?xml version="1.0" standalone="no"?>
<!DOCTYPE svg PUBLIC "-//W3C//DTD SVG 20010904//EN"
 "http://www.w3.org/TR/2001/REC-SVG-20010904/DTD/svg10.dtd">
<svg version="1.0" xmlns="http://www.w3.org/2000/svg"
 width="2000.000000pt" height="1500.000000pt" viewBox="0 0 2000.000000 1500.000000"
 preserveAspectRatio="xMidYMid meet">

<g transform="translate(0.000000,1500.000000) scale(0.100000,-0.100000)"
fill="#000000" stroke="none">
<path d="M13678 9378 c-339 -469 -615 -854 -615 -854 1 -1 189 2 417 6 228 5
418 5 421 2 4 -4 14 -482 23 -1062 9 -580 21 -1106 27 -1169 35 -415 214 -784
524 -1079 232 -222 530 -374 860 -439 140 -28 483 -25 625 6 235 50 467 150
650 278 137 97 329 292 419 427 120 180 196 349 245 541 39 158 50 256 49 460
-1 334 -44 2879 -49 2913 l-5 32 -417 -6 c-229 -4 -418 -8 -419 -9 -2 -1 9
-636 23 -1411 14 -775 23 -1479 21 -1564 -5 -181 -23 -255 -93 -390 -240 -465
-842 -602 -1259 -287 -163 123 -277 303 -321 507 -11 50 -19 311 -35 1164 -11
604 -18 1100 -15 1103 2 3 189 8 415 12 227 5 413 10 416 12 4 5 -1277 1657
-1285 1658 -3 1 -283 -383 -622 -851z"/>
<path d="M8882 7955 c-229 -50 -372 -229 -372 -465 l0 -60 -75 0 -75 0 0 -180
0 -180 78 6 77 6 -3 -381 -2 -381 241 0 242 0 -7 178 c-3 97 -7 269 -8 382
l-3 205 95 -3 c52 -2 112 -5 133 -8 l37 -6 0 181 0 181 -150 0 c-114 0 -158 4
-180 15 -75 39 -34 135 58 135 43 0 124 -27 165 -54 l35 -24 17 91 c9 51 30
148 46 216 16 68 28 125 26 127 -1 2 -43 10 -91 19 -107 18 -199 18 -284 0z"/>
<path d="M9390 7115 l0 -795 238 0 237 0 0 795 0 795 -237 0 -238 0 0 -795z"/>
<path d="M5421 7623 c9 -229 9 -885 0 -1121 l-6 -182 238 0 237 0 0 235 0 236
157 -3 158 -3 92 -150 c51 -82 113 -187 139 -232 l46 -83 274 0 c151 0 274 2
274 5 0 3 -48 71 -107 152 -59 82 -139 194 -179 249 l-72 101 81 31 c181 70
276 190 296 377 18 165 -24 301 -123 401 -67 67 -150 108 -278 136 -87 20
-128 22 -663 25 l-570 4 6 -178z m1086 -233 c114 -33 118 -152 5 -189 -43 -14
-394 -33 -527 -29 l-90 3 -3 104 c-1 58 0 111 3 119 4 12 49 13 288 9 175 -3
298 -9 324 -17z"/>
<path d="M12895 7631 c-10 -46 -60 -118 -106 -150 -24 -18 -66 -36 -100 -43
l-59 -12 0 -151 0 -150 -24 42 c-60 104 -149 181 -263 228 -183 74 -505 77
-692 6 -209 -79 -331 -273 -331 -525 0 -154 39 -271 125 -376 118 -144 310
-208 590 -197 272 11 449 94 557 261 21 33 37 61 35 62 -2 2 -57 17 -122 34
-66 17 -157 44 -202 59 l-82 28 -27 -28 c-68 -71 -225 -95 -320 -48 -110 53
-154 202 -94 319 42 83 137 128 250 117 61 -5 104 -23 161 -68 l37 -29 108 34
c111 35 263 76 283 76 6 0 11 -11 11 -25 l0 -24 99 6 99 6 4 -234 c4 -206 7
-242 26 -299 40 -119 106 -186 222 -226 45 -16 84 -19 220 -19 91 0 191 4 223
8 l57 8 0 159 0 158 -79 -1 c-182 -2 -244 93 -226 349 l7 105 102 -5 c55 -4
131 -9 169 -12 l67 -5 0 180 0 181 -197 0 -198 0 35 27 c45 34 166 157 180
183 11 20 8 20 -264 20 l-274 0 -7 -29z"/>
<path d="M7590 7449 c-120 -8 -205 -30 -298 -75 -175 -86 -282 -272 -282 -494
0 -281 151 -479 419 -552 107 -30 398 -32 516 -4 165 38 293 113 365 213 45
63 47 71 23 80 -10 3 -91 35 -181 70 l-163 65 -32 -33 c-55 -55 -129 -82 -234
-87 -81 -4 -97 -2 -146 21 -59 27 -101 73 -122 134 l-13 38 461 5 462 5 3 49
c5 77 -16 178 -54 257 -49 101 -127 176 -247 233 -137 67 -274 88 -477 75z
m248 -328 c38 -19 102 -90 102 -113 0 -4 -108 -8 -240 -8 -153 0 -240 4 -240
10 0 16 71 90 101 106 77 39 205 42 277 5z"/>
<path d="M10500 7449 c-194 -13 -330 -68 -428 -174 -103 -110 -147 -229 -146
-400 2 -268 136 -459 374 -534 235 -73 589 -45 771 61 92 54 203 178 185 206
-3 5 -40 21 -83 36 -43 15 -120 46 -170 68 l-93 40 -37 -32 c-63 -55 -137 -84
-228 -88 -103 -5 -156 10 -207 56 -38 34 -77 100 -78 130 0 9 99 12 460 12
l460 0 0 78 c0 149 -46 261 -149 362 -142 140 -348 198 -631 179z m217 -314
c39 -12 62 -27 92 -62 23 -25 41 -52 41 -59 0 -11 -45 -14 -241 -14 l-241 0
19 31 c56 97 201 142 330 104z"/>
</g>
</svg>
